<?xml version="1.0" encoding="UTF-8" standalone="no"?>
<!DOCTYPE svg PUBLIC "-//W3C//DTD SVG 1.1//EN" "http://www.w3.org/Graphics/SVG/1.1/DTD/svg11.dtd">
<svg width="100%" height="100%" viewBox="0 0 1000 400" version="1.1" xmlns="http://www.w3.org/2000/svg" xmlns:xlink="http://www.w3.org/1999/xlink" xml:space="preserve" xmlns:serif="http://www.serif.com/" style="fill-rule:evenodd;clip-rule:evenodd;stroke-linejoin:round;stroke-miterlimit:2;">
    <g transform="matrix(1,0,0,1,-2.66688,-94.293)">
        <path d="M9.076,429.987L318.526,429.51C318.526,429.51 318.861,292.976 318.809,292.472C311.162,218.022 241.738,159.539 165.197,159.647C91.332,159.751 22.695,209.173 9.039,291.187C8.956,291.686 8.917,427.966 8.917,427.966L9.076,429.987C7.658,430.871 2.931,434.529 2.931,434.529C2.931,434.529 2.516,291.543 2.583,290.972C11.216,217.336 80.709,153.402 164.569,153.402L164.565,153.402C245.273,154.663 316.689,212.262 325.265,290.997C325.328,291.568 325.548,435.184 325.548,435.184L2.931,434.529" style="fill:rgb(201,102,84);"/>
    </g>
    <g transform="matrix(1,0,0,1,-2.66688,-70.318)">
        <path d="M241.656,281.739L262.485,300.443L262.485,266.365C262.485,265.157 261.548,264.168 260.402,264.168L243.739,264.168C242.593,264.168 241.656,265.157 241.656,266.365L241.656,281.739Z" style="fill:rgb(201,102,84);fill-rule:nonzero;"/>
    </g>
    <g transform="matrix(1,0,0,1,-2.66688,98.627)">
        <path d="M186.408,182.928L180.349,157.509C180.153,156.414 179.196,155.619 178.078,155.619L162.538,155.619C161.42,155.619 160.469,156.414 160.267,157.509L154.999,182.928C154.878,183.596 155.057,184.294 155.495,184.818C155.933,185.343 156.578,185.648 157.264,185.648L173.401,185.648L168.79,185.648L168.79,240.047L173.401,240.047L173.407,185.648L170.306,185.648C170.986,185.648 185.469,185.348 185.907,184.818C186.345,184.294 186.53,183.602 186.403,182.928L186.408,182.928ZM160.036,181.036L164.463,160.228L176.154,160.228L181.372,181.036L160.025,181.036L160.036,181.036Z" style="fill:rgb(201,102,84);fill-rule:nonzero;"/>
    </g>
    <g transform="matrix(1,0,0,1,-2.66688,133.258)">
        <path d="M267.583,181.417C268.842,179.798 269.382,177.64 269.382,175.482C269.382,170.626 265.965,166.49 261.289,165.411L261.289,159.296C261.289,158.037 260.21,157.138 259.131,157.138L194.388,157.138C193.129,157.138 192.23,158.217 192.23,159.296L192.23,165.411C187.554,166.49 184.137,170.626 184.137,175.482C184.137,177.64 184.856,179.798 185.936,181.417C184.856,181.596 184.137,182.496 184.137,183.575L184.137,194.365C184.137,195.624 185.216,196.523 186.295,196.523L192.05,196.523L192.05,201.739C192.05,202.997 193.129,203.897 194.208,203.897C195.287,203.897 196.366,202.818 196.366,201.739L196.366,196.523L257.872,196.523L257.872,201.739C257.872,202.997 258.951,203.897 260.03,203.897C261.109,203.897 262.188,202.818 262.188,201.739L262.188,196.523L266.684,196.523C267.943,196.523 268.842,195.444 268.842,194.365L268.842,183.575C269.562,182.316 268.663,181.596 267.583,181.417ZM264.886,175.482C264.886,178.719 262.188,181.237 259.131,181.237C255.894,181.237 253.376,178.539 253.376,175.482C253.376,172.245 256.074,169.727 259.131,169.727C262.188,169.727 264.886,172.245 264.886,175.482ZM256.973,165.411C252.297,166.49 248.88,170.626 248.88,175.482C248.88,177.64 249.599,179.618 250.678,181.237L229.097,181.237L229.097,161.454L256.973,161.454L256.973,165.411ZM224.601,161.454L224.601,181.237L203.02,181.237C204.099,179.618 204.819,177.64 204.819,175.482C204.819,170.626 201.402,166.49 196.726,165.411L196.726,161.634L224.601,161.634L224.601,161.454ZM194.388,169.547C197.625,169.547 200.143,172.245 200.143,175.302C200.143,178.539 197.445,181.057 194.388,181.057C191.151,181.057 188.633,178.359 188.633,175.302C188.633,172.245 191.151,169.547 194.388,169.547ZM264.886,192.027L188.633,192.027L188.633,185.733L264.886,185.733L264.886,192.027Z" style="fill:rgb(201,102,84);fill-rule:nonzero;"/>
    </g>
    <g transform="matrix(1,0,0,1,-2.66688,32.369)">
        <path d="M147.693,213.698L216.077,160.967L274.261,208.231L274.261,304.651L157.586,304.651L157.689,306.705L274.359,307.272C277.247,307.272 279.611,307.176 279.611,304.288L279.611,212.684C279.255,208.2 280.879,207.254 277.194,203.581L219.49,156.332C217.547,154.652 214.658,154.652 212.715,156.332L144.478,209.649" style="fill:rgb(201,102,84);fill-rule:nonzero;"/>
    </g>
    <g transform="matrix(1,0,0,1,-2.66688,5.126)">
        <path d="M215.648,222.833C205.251,222.833 196.798,232.591 196.798,244.583C196.798,256.575 205.251,266.334 215.648,266.334C226.045,266.334 234.498,256.575 234.498,244.583C234.498,232.591 226.045,222.833 215.648,222.833ZM215.648,261.825C208.05,261.825 201.306,253.776 201.306,244.583C201.306,235.389 208.049,227.34 215.648,227.34C223.247,227.34 229.99,235.389 229.99,244.583C229.99,253.776 223.247,261.825 215.648,261.825Z" style="fill:rgb(201,102,84);fill-rule:nonzero;"/>
    </g>
    <g transform="matrix(1,0,0,1,-2.66688,-24.285)">
        <path d="M127.882,261.456C127.882,261.456 122.77,258.66 121.765,259.435C120.34,260.533 124.552,264.62 124.552,264.62C124.552,264.62 136.077,276.116 140.496,274.967C144.904,267.374 127.882,261.456 127.882,261.456ZM137.205,303.207C130.426,299.509 129.81,296.455 125.804,294.298C121.491,300.461 124.089,299.036 129.019,306.739C129.019,306.739 126.561,308.253 127.793,310.718C130.448,316.027 138.525,317.979 143.505,323.894C140.772,326.4 127.923,318.395 123.609,313.773C121.452,315.082 107.308,321.166 110.094,331.195C111.635,336.741 112.152,340.796 112.152,340.796C112.152,340.796 107.776,340.864 102.762,336.987C100.074,341.477 69.948,348.792 68.715,362.349L102.191,362.349C103.115,357.728 115.823,344.543 118.288,343.311C119.869,345.776 109.801,359.884 109.801,362.349L128.852,362.349C142.665,351.994 122.2,334.001 124.619,332.042C127.038,330.082 140.903,340.423 143.368,350.591C144.292,355.213 144.6,359.527 143.984,362.916L161.41,362.916L161.41,358.294C163.259,358.602 163.259,362.916 164.183,362.916L174.66,362.916C173.267,348.891 162.593,346.144 160.277,344.379C160.277,342.53 156.001,341.298 156.001,340.065C149.057,343.274 129.042,327.307 130.433,324.49C131.448,322.434 147.309,334.655 154.571,337.254C152.414,329.551 151.273,321.02 151.813,312.383C152.121,307.453 149.31,299.293 149.31,294.055C149.31,286.66 152.677,263.714 152.677,263.714C151.852,258.592 139.007,255.239 137.623,252.944C136.734,251.469 136.219,247.936 138.36,245.663C149.209,234.148 184.929,221.937 186.028,215.03C186.676,210.955 164.657,225.252 165.251,219.683C166.364,209.23 172.081,201.31 171.109,198.446C169.557,193.878 164.095,202.385 155.591,221.102C153.363,226.005 135.073,236.777 136.211,233.492C145.041,207.988 143.032,160.445 140.173,160.006C137.543,155.662 132.475,248.817 116.615,240.857C103.527,234.288 99.266,188.376 94.984,187.403C93.056,186.965 86.699,197.079 95.749,231.355C97.027,236.196 65.981,222.207 65.919,226.302C65.871,229.419 107.838,247.62 117.881,264.353C119.942,267.788 122.921,272.475 123.229,275.556C125.694,276.789 125.683,285.009 126.387,290.247C132.549,296.102 145.72,301.156 145.183,303.805C144.614,306.609 137.205,303.207 137.205,303.207Z" style="fill:rgb(201,102,84);"/>
    </g>
    <g transform="matrix(1,0,0,1,-2.66688,-169.557)">
        <path d="M117.406,322.576C126.665,320.629 131.173,330.14 132.656,342.161C132.656,342.161 113.891,343.221 117.406,322.576Z" style="fill:rgb(201,102,84);"/>
    </g>
    <g transform="matrix(1,0,0,1,-2.66688,-133.517)">
        <path d="M39.838,303.314C53.662,302.774 62.028,312.887 66.171,325.036C66.171,325.036 37.699,323.268 39.838,303.314Z" style="fill:rgb(201,102,84);"/>
    </g>
    <g transform="matrix(1,0,0,1,-2.66688,-143.363)">
        <path d="M73.934,314.393C81.275,313.169 85.864,318.063 88.922,323.875C88.922,323.875 73.934,324.487 73.934,314.393Z" style="fill:rgb(201,102,84);"/>
    </g>
    <g transform="matrix(1,0,0,1,-2.66688,-186.944)">
        <path d="M192.885,334.985C192.029,343.873 184.913,347.664 177.204,349.397C177.204,349.397 181.146,331.84 192.885,334.985Z" style="fill:rgb(201,102,84);"/>
    </g>
    <g transform="matrix(1,0,0,1,-2.66688,-239.101)">
        <path d="M164.128,356.797C165.428,366.826 158.701,373.003 150.231,376.933C150.231,376.933 149.711,356.461 164.128,356.797Z" style="fill:rgb(201,102,84);"/>
    </g>
    <g transform="matrix(1,0,0,1,-2.66688,-124.728)">
        <path d="M209.187,302.676C196.484,300.7 192.314,307.672 187.669,316.42C187.669,316.42 210.748,318.321 209.187,302.676Z" style="fill:rgb(201,102,84);"/>
    </g>
    <g transform="matrix(1,0,0,1,-2.66688,-159.069)">
        <path d="M103.862,337.842C112.93,333.877 114.791,324.782 113.844,315.52C113.844,315.52 96.112,326.104 103.862,337.842Z" style="fill:rgb(201,102,84);"/>
    </g>
    <g transform="matrix(1,0,0,1,-2.66688,-110.756)">
        <path d="M72.744,293.858C70.33,301.278 74.551,306.92 80.098,311.191C80.098,311.191 83.409,295.741 72.744,293.858Z" style="fill:rgb(201,102,84);"/>
    </g>
    <g transform="matrix(1,0,0,1,-2.66688,-140.303)">
        <path d="M157.264,307.338C148.006,309.691 144.334,318.509 143.57,327.258C143.57,327.258 162.617,320.406 157.264,307.338Z" style="fill:rgb(201,102,84);"/>
    </g>
    <g transform="matrix(1,0,0,1,-2.66688,-203.53)">
        <path d="M107.969,338.005C99.191,341.774 96.939,351.057 97.549,359.818C97.549,359.818 115.295,350.078 107.969,338.005Z" style="fill:rgb(201,102,84);"/>
    </g>
    <g transform="matrix(1,0,0,1,-2.66688,-66.841)">
        <path d="M69.461,278.636C65.323,288.291 55.392,290.498 45.737,289.67C45.737,289.67 56.495,270.636 69.461,278.636Z" style="fill:rgb(201,102,84);"/>
    </g>
    <g transform="matrix(1,0,0,1,-2.66688,-31.181)">
        <path d="M82.092,257.275C71.643,253 62.618,258.225 55.969,265.824C55.969,265.824 77.817,272.474 82.092,257.275Z" style="fill:rgb(201,102,84);"/>
    </g>
    <g transform="matrix(1,0,0,1,-2.66688,-70.953)">
        <path d="M52.983,278.086C44.069,273.357 35.557,277.534 29.179,284.515C29.179,284.515 48.698,291.889 52.983,278.086Z" style="fill:rgb(201,102,84);"/>
    </g>
    <g transform="matrix(1,0,0,1,-2.66688,-112.308)">
        <path d="M112.953,292.757C122.251,295.817 125.238,304.736 125.201,313.844C125.201,313.844 106.454,305.305 112.953,292.757Z" style="fill:rgb(201,102,84);"/>
    </g>
    <g transform="matrix(1,0,0,1,-2.66688,-149.461)">
        <path d="M194.068,311.855C183.215,313.483 178.405,322.321 176.996,331.899C176.996,331.899 198.27,326.4 194.068,311.855Z" style="fill:rgb(201,102,84);"/>
    </g>
    <g transform="matrix(1,0,0,1,-2.66688,-103.096)">
        <path d="M33.017,293.34C42.795,289.149 51.177,294.737 57.696,302.187C57.696,302.187 36.277,308.24 33.017,293.34Z" style="fill:rgb(201,102,84);"/>
    </g>
    <g transform="matrix(1,0,0,1,-2.66688,-219.44)">
        <path d="M118.52,347.551C128.072,349.18 131.959,357.511 133.232,366.182C133.232,366.182 114.203,360.183 118.52,347.551Z" style="fill:rgb(201,102,84);"/>
    </g>
    <g transform="matrix(1,0,0,1,-2.66688,-167.381)">
        <path d="M166.222,316.706C159.071,325.97 162.873,336.584 169.114,344.968C169.114,344.968 180.671,324.033 166.222,316.706Z" style="fill:rgb(201,102,84);"/>
    </g>
    <g transform="matrix(1,0,0,1,-2.66688,-260.09)">
        <path d="M128.57,364.174C124.584,375.177 131.44,384.126 139.94,390.209C139.94,390.209 144.564,366.748 128.57,364.174Z" style="fill:rgb(201,102,84);"/>
    </g>
    <g transform="matrix(1,0,0,1,-2.66688,-183.437)">
        <path d="M158.79,330.351C150.554,332.572 147.488,339.745 146.874,347.379C146.874,347.379 163.001,341.5 158.79,330.351Z" style="fill:rgb(201,102,84);"/>
    </g>
    <g transform="matrix(1,0,0,1,-2.66688,-186.546)">
        <path d="M66.349,331.767C77.982,331.049 84.673,339.946 87.936,349.79C87.936,349.79 63.744,348.659 66.349,331.767Z" style="fill:rgb(201,102,84);"/>
    </g>
    <g transform="matrix(1,0,0,1,-2.66688,-217.393)">
        <path d="M81.185,344.083C78.195,353.498 84.041,361.905 91.672,367.603C91.672,367.603 94.943,346.988 81.185,344.083Z" style="fill:rgb(201,102,84);"/>
    </g>
    <g transform="matrix(2.07712,0,0,2.07712,332.02,-519.964)">
        <path d="M49.518,382.306C41.286,382.306 33.726,380.374 26.838,376.51C19.95,372.646 14.49,367.291 10.458,360.445C6.426,353.599 4.41,345.85 4.41,337.198C4.41,328.63 6.426,320.923 10.458,314.077C14.49,307.231 19.95,301.876 26.838,298.012C33.726,294.148 41.286,292.216 49.518,292.216C57.834,292.216 65.415,294.148 72.261,298.012C79.107,301.876 84.525,307.231 88.515,314.077C92.505,320.923 94.5,328.63 94.5,337.198C94.5,345.85 92.505,353.599 88.515,360.445C84.525,367.291 79.086,372.646 72.198,376.51C65.31,380.374 57.75,382.306 49.518,382.306ZM49.518,366.556C54.81,366.556 59.472,365.359 63.504,362.965C67.536,360.571 70.686,357.148 72.954,352.696C75.222,348.244 76.356,343.078 76.356,337.198C76.356,331.318 75.222,326.173 72.954,321.763C70.686,317.353 67.536,313.972 63.504,311.62C59.472,309.268 54.81,308.092 49.518,308.092C44.226,308.092 39.543,309.268 35.469,311.62C31.395,313.972 28.224,317.353 25.956,321.763C23.688,326.173 22.554,331.318 22.554,337.198C22.554,343.078 23.688,348.244 25.956,352.696C28.224,357.148 31.395,360.571 35.469,362.965C39.543,365.359 44.226,366.556 49.518,366.556Z" style="fill:rgb(201,102,84);fill-rule:nonzero;"/>
        <rect x="107.604" y="288.184" width="17.64" height="93.24" style="fill:rgb(201,102,84);fill-rule:nonzero;"/>
        <path d="M151.578,303.304C148.47,303.304 145.887,302.317 143.829,300.343C141.771,298.369 140.742,295.912 140.742,292.972C140.742,290.032 141.771,287.575 143.829,285.601C145.887,283.627 148.47,282.64 151.578,282.64C154.686,282.64 157.269,283.627 159.327,285.601C161.385,287.575 162.414,290.032 162.414,292.972C162.414,295.912 161.385,298.369 159.327,300.343C157.269,302.317 154.686,303.304 151.578,303.304ZM160.272,311.62L160.272,381.424L142.632,381.424L142.632,311.62L160.272,311.62Z" style="fill:rgb(201,102,84);fill-rule:nonzero;"/>
        <path d="M206.766,365.17L224.406,311.62L243.18,311.62L217.35,381.424L195.93,381.424L170.226,311.62L189.126,311.62L206.766,365.17Z" style="fill:rgb(201,102,84);fill-rule:nonzero;"/>
        <path d="M248.598,346.27C248.598,339.214 250.005,332.956 252.819,327.496C255.633,322.036 259.455,317.836 264.285,314.896C269.115,311.956 274.512,310.486 280.476,310.486C285.684,310.486 290.241,311.536 294.147,313.636C298.053,315.736 301.182,318.382 303.534,321.574L303.534,311.62L321.3,311.62L321.3,381.424L303.534,381.424L303.534,371.218C301.266,374.494 298.137,377.203 294.147,379.345C290.157,381.487 285.558,382.558 280.35,382.558C274.47,382.558 269.115,381.046 264.285,378.022C259.455,374.998 255.633,370.735 252.819,365.233C250.005,359.731 248.598,353.41 248.598,346.27ZM303.534,346.522C303.534,342.238 302.694,338.563 301.014,335.497C299.334,332.431 297.066,330.079 294.21,328.441C291.354,326.803 288.288,325.984 285.012,325.984C281.736,325.984 278.712,326.782 275.94,328.378C273.168,329.974 270.921,332.305 269.199,335.371C267.477,338.437 266.616,342.07 266.616,346.27C266.616,350.47 267.477,354.145 269.199,357.295C270.921,360.445 273.189,362.86 276.003,364.54C278.817,366.22 281.82,367.06 285.012,367.06C288.288,367.06 291.354,366.241 294.21,364.603C297.066,362.965 299.334,360.613 301.014,357.547C302.694,354.481 303.534,350.806 303.534,346.522Z" style="fill:rgb(201,102,84);fill-rule:nonzero;"/>
    </g>
    <g transform="matrix(2.07712,0,0,2.07712,332.02,-519.964)">
        <path d="M29.42,389.474L29.42,410.384L26.69,410.384L26.69,400.904L16.04,400.904L16.04,410.384L13.31,410.384L13.31,389.474L16.04,389.474L16.04,398.654L26.69,398.654L26.69,389.474L29.42,389.474Z" style="fill:rgb(201,102,84);fill-rule:nonzero;"/>
        <path d="M51.65,410.594C49.71,410.594 47.94,410.139 46.34,409.229C44.74,408.319 43.475,407.049 42.545,405.419C41.615,403.789 41.15,401.954 41.15,399.914C41.15,397.874 41.615,396.039 42.545,394.409C43.475,392.779 44.74,391.509 46.34,390.599C47.94,389.689 49.71,389.234 51.65,389.234C53.61,389.234 55.39,389.689 56.99,390.599C58.59,391.509 59.85,392.774 60.77,394.394C61.69,396.014 62.15,397.854 62.15,399.914C62.15,401.974 61.69,403.814 60.77,405.434C59.85,407.054 58.59,408.319 56.99,409.229C55.39,410.139 53.61,410.594 51.65,410.594ZM51.65,408.224C53.11,408.224 54.425,407.884 55.595,407.204C56.765,406.524 57.685,405.554 58.355,404.294C59.025,403.034 59.36,401.574 59.36,399.914C59.36,398.234 59.025,396.769 58.355,395.519C57.685,394.269 56.77,393.304 55.61,392.624C54.45,391.944 53.13,391.604 51.65,391.604C50.17,391.604 48.85,391.944 47.69,392.624C46.53,393.304 45.615,394.269 44.945,395.519C44.275,396.769 43.94,398.234 43.94,399.914C43.94,401.574 44.275,403.034 44.945,404.294C45.615,405.554 46.535,406.524 47.705,407.204C48.875,407.884 50.19,408.224 51.65,408.224Z" style="fill:rgb(201,102,84);fill-rule:nonzero;"/>
        <path d="M95.06,389.624L95.06,410.384L92.33,410.384L92.33,394.904L85.43,410.384L83.51,410.384L76.58,394.874L76.58,410.384L73.85,410.384L73.85,389.624L76.79,389.624L84.47,406.784L92.15,389.624L95.06,389.624Z" style="fill:rgb(201,102,84);fill-rule:nonzero;"/>
        <path d="M110.51,391.694L110.51,398.684L118.13,398.684L118.13,400.934L110.51,400.934L110.51,408.134L119.03,408.134L119.03,410.384L107.78,410.384L107.78,389.444L119.03,389.444L119.03,391.694L110.51,391.694Z" style="fill:rgb(201,102,84);fill-rule:nonzero;"/>
        <path d="M154.01,410.594C152.63,410.594 151.395,410.349 150.305,409.859C149.215,409.369 148.36,408.689 147.74,407.819C147.12,406.949 146.8,405.944 146.78,404.804L149.69,404.804C149.79,405.784 150.195,406.609 150.905,407.279C151.615,407.949 152.65,408.284 154.01,408.284C155.31,408.284 156.335,407.959 157.085,407.309C157.835,406.659 158.21,405.824 158.21,404.804C158.21,404.004 157.99,403.354 157.55,402.854C157.11,402.354 156.56,401.974 155.9,401.714C155.24,401.454 154.35,401.174 153.23,400.874C151.85,400.514 150.745,400.154 149.915,399.794C149.085,399.434 148.375,398.869 147.785,398.099C147.195,397.329 146.9,396.294 146.9,394.994C146.9,393.854 147.19,392.844 147.77,391.964C148.35,391.084 149.165,390.404 150.215,389.924C151.265,389.444 152.47,389.204 153.83,389.204C155.79,389.204 157.395,389.694 158.645,390.674C159.895,391.654 160.6,392.954 160.76,394.574L157.76,394.574C157.66,393.774 157.24,393.069 156.5,392.459C155.76,391.849 154.78,391.544 153.56,391.544C152.42,391.544 151.49,391.839 150.77,392.429C150.05,393.019 149.69,393.844 149.69,394.904C149.69,395.664 149.905,396.284 150.335,396.764C150.765,397.244 151.295,397.609 151.925,397.859C152.555,398.109 153.44,398.394 154.58,398.714C155.96,399.094 157.07,399.469 157.91,399.839C158.75,400.209 159.47,400.779 160.07,401.549C160.67,402.319 160.97,403.364 160.97,404.684C160.97,405.704 160.7,406.664 160.16,407.564C159.62,408.464 158.82,409.194 157.76,409.754C156.7,410.314 155.45,410.594 154.01,410.594Z" style="fill:rgb(201,102,84);fill-rule:nonzero;"/>
        <path d="M185.96,389.474L185.96,391.694L180.26,391.694L180.26,410.384L177.53,410.384L177.53,391.694L171.8,391.694L171.8,389.474L185.96,389.474Z" style="fill:rgb(201,102,84);fill-rule:nonzero;"/>
        <path d="M209.78,405.734L200.66,405.734L198.98,410.384L196.1,410.384L203.66,389.594L206.81,389.594L214.34,410.384L211.46,410.384L209.78,405.734ZM209,403.514L205.22,392.954L201.44,403.514L209,403.514Z" style="fill:rgb(201,102,84);fill-rule:nonzero;"/>
        <path d="M241.58,395.534C241,394.314 240.16,393.369 239.06,392.699C237.96,392.029 236.68,391.694 235.22,391.694C233.76,391.694 232.445,392.029 231.275,392.699C230.105,393.369 229.185,394.329 228.515,395.579C227.845,396.829 227.51,398.274 227.51,399.914C227.51,401.554 227.845,402.994 228.515,404.234C229.185,405.474 230.105,406.429 231.275,407.099C232.445,407.769 233.76,408.104 235.22,408.104C237.26,408.104 238.94,407.494 240.26,406.274C241.58,405.054 242.35,403.404 242.57,401.324L234.23,401.324L234.23,399.104L245.48,399.104L245.48,401.204C245.32,402.924 244.78,404.499 243.86,405.929C242.94,407.359 241.73,408.489 240.23,409.319C238.73,410.149 237.06,410.564 235.22,410.564C233.28,410.564 231.51,410.109 229.91,409.199C228.31,408.289 227.045,407.024 226.115,405.404C225.185,403.784 224.72,401.954 224.72,399.914C224.72,397.874 225.185,396.039 226.115,394.409C227.045,392.779 228.31,391.509 229.91,390.599C231.51,389.689 233.28,389.234 235.22,389.234C237.44,389.234 239.405,389.784 241.115,390.884C242.825,391.984 244.07,393.534 244.85,395.534L241.58,395.534Z" style="fill:rgb(201,102,84);fill-rule:nonzero;"/>
        <rect x="257.18" y="389.474" width="2.73" height="20.91" style="fill:rgb(201,102,84);fill-rule:nonzero;"/>
        <path d="M289.1,410.384L286.37,410.384L275.39,393.734L275.39,410.384L272.66,410.384L272.66,389.444L275.39,389.444L286.37,406.064L286.37,389.444L289.1,389.444L289.1,410.384Z" style="fill:rgb(201,102,84);fill-rule:nonzero;"/>
        <path d="M317.69,395.534C317.11,394.314 316.27,393.369 315.17,392.699C314.07,392.029 312.79,391.694 311.33,391.694C309.87,391.694 308.555,392.029 307.385,392.699C306.215,393.369 305.295,394.329 304.625,395.579C303.955,396.829 303.62,398.274 303.62,399.914C303.62,401.554 303.955,402.994 304.625,404.234C305.295,405.474 306.215,406.429 307.385,407.099C308.555,407.769 309.87,408.104 311.33,408.104C313.37,408.104 315.05,407.494 316.37,406.274C317.69,405.054 318.46,403.404 318.68,401.324L310.34,401.324L310.34,399.104L321.59,399.104L321.59,401.204C321.43,402.924 320.89,404.499 319.97,405.929C319.05,407.359 317.84,408.489 316.34,409.319C314.84,410.149 313.17,410.564 311.33,410.564C309.39,410.564 307.62,410.109 306.02,409.199C304.42,408.289 303.155,407.024 302.225,405.404C301.295,403.784 300.83,401.954 300.83,399.914C300.83,397.874 301.295,396.039 302.225,394.409C303.155,392.779 304.42,391.509 306.02,390.599C307.62,389.689 309.39,389.234 311.33,389.234C313.55,389.234 315.515,389.784 317.225,390.884C318.935,391.984 320.18,393.534 320.96,395.534L317.69,395.534Z" style="fill:rgb(201,102,84);fill-rule:nonzero;"/>
    </g>
</svg>
