<?xml version="1.0" encoding="UTF-8" standalone="no"?>
<!DOCTYPE svg PUBLIC "-//W3C//DTD SVG 1.1//EN" "http://www.w3.org/Graphics/SVG/1.1/DTD/svg11.dtd">
<svg width="100%" height="100%" viewBox="0 0 1000 400" version="1.1" xmlns="http://www.w3.org/2000/svg" xmlns:xlink="http://www.w3.org/1999/xlink" xml:space="preserve" xmlns:serif="http://www.serif.com/" style="fill-rule:evenodd;clip-rule:evenodd;stroke-linejoin:round;stroke-miterlimit:2;">
    <g transform="matrix(1,0,0,1,-2.66688,-94.293)">
        <path d="M9.076,429.987L318.526,429.51C318.526,429.51 318.861,292.976 318.809,292.472C311.162,218.022 241.738,159.539 165.197,159.647C91.332,159.751 22.695,209.173 9.039,291.187C8.956,291.686 8.917,427.966 8.917,427.966L9.076,429.987C7.658,430.871 2.931,434.529 2.931,434.529C2.931,434.529 2.516,291.543 2.583,290.972C11.216,217.336 80.709,153.402 164.569,153.402L164.565,153.402C245.273,154.663 316.689,212.262 325.265,290.997C325.328,291.568 325.548,435.184 325.548,435.184L2.931,434.529" style="fill:rgb(201,102,84);"/>
    </g>
    <g transform="matrix(1,0,0,1,-2.66688,-70.318)">
        <path d="M241.656,281.739L262.485,300.443L262.485,266.365C262.485,265.157 261.548,264.168 260.402,264.168L243.739,264.168C242.593,264.168 241.656,265.157 241.656,266.365L241.656,281.739Z" style="fill:rgb(201,102,84);fill-rule:nonzero;"/>
    </g>
    <g transform="matrix(1,0,0,1,-2.66688,98.627)">
        <path d="M186.408,182.928L180.349,157.509C180.153,156.414 179.196,155.619 178.078,155.619L162.538,155.619C161.42,155.619 160.469,156.414 160.267,157.509L154.999,182.928C154.878,183.596 155.057,184.294 155.495,184.818C155.933,185.343 156.578,185.648 157.264,185.648L173.401,185.648L168.79,185.648L168.79,240.047L173.401,240.047L173.407,185.648L170.306,185.648C170.986,185.648 185.469,185.348 185.907,184.818C186.345,184.294 186.53,183.602 186.403,182.928L186.408,182.928ZM160.036,181.036L164.463,160.228L176.154,160.228L181.372,181.036L160.025,181.036L160.036,181.036Z" style="fill:rgb(201,102,84);fill-rule:nonzero;"/>
    </g>
    <g transform="matrix(1,0,0,1,-2.66688,133.258)">
        <path d="M267.583,181.417C268.842,179.798 269.382,177.64 269.382,175.482C269.382,170.626 265.965,166.49 261.289,165.411L261.289,159.296C261.289,158.037 260.21,157.138 259.131,157.138L194.388,157.138C193.129,157.138 192.23,158.217 192.23,159.296L192.23,165.411C187.554,166.49 184.137,170.626 184.137,175.482C184.137,177.64 184.856,179.798 185.936,181.417C184.856,181.596 184.137,182.496 184.137,183.575L184.137,194.365C184.137,195.624 185.216,196.523 186.295,196.523L192.05,196.523L192.05,201.739C192.05,202.997 193.129,203.897 194.208,203.897C195.287,203.897 196.366,202.818 196.366,201.739L196.366,196.523L257.872,196.523L257.872,201.739C257.872,202.997 258.951,203.897 260.03,203.897C261.109,203.897 262.188,202.818 262.188,201.739L262.188,196.523L266.684,196.523C267.943,196.523 268.842,195.444 268.842,194.365L268.842,183.575C269.562,182.316 268.663,181.596 267.583,181.417ZM264.886,175.482C264.886,178.719 262.188,181.237 259.131,181.237C255.894,181.237 253.376,178.539 253.376,175.482C253.376,172.245 256.074,169.727 259.131,169.727C262.188,169.727 264.886,172.245 264.886,175.482ZM256.973,165.411C252.297,166.49 248.88,170.626 248.88,175.482C248.88,177.64 249.599,179.618 250.678,181.237L229.097,181.237L229.097,161.454L256.973,161.454L256.973,165.411ZM224.601,161.454L224.601,181.237L203.02,181.237C204.099,179.618 204.819,177.64 204.819,175.482C204.819,170.626 201.402,166.49 196.726,165.411L196.726,161.634L224.601,161.634L224.601,161.454ZM194.388,169.547C197.625,169.547 200.143,172.245 200.143,175.302C200.143,178.539 197.445,181.057 194.388,181.057C191.151,181.057 188.633,178.359 188.633,175.302C188.633,172.245 191.151,169.547 194.388,169.547ZM264.886,192.027L188.633,192.027L188.633,185.733L264.886,185.733L264.886,192.027Z" style="fill:rgb(201,102,84);fill-rule:nonzero;"/>
    </g>
    <g transform="matrix(1,0,0,1,-2.66688,32.369)">
        <path d="M147.693,213.698L216.077,160.967L274.261,208.231L274.261,304.651L157.586,304.651L157.689,306.705L274.359,307.272C277.247,307.272 279.611,307.176 279.611,304.288L279.611,212.684C279.255,208.2 280.879,207.254 277.194,203.581L219.49,156.332C217.547,154.652 214.658,154.652 212.715,156.332L144.478,209.649" style="fill:rgb(201,102,84);fill-rule:nonzero;"/>
    </g>
    <g transform="matrix(1,0,0,1,-2.66688,5.126)">
        <path d="M215.648,222.833C205.251,222.833 196.798,232.591 196.798,244.583C196.798,256.575 205.251,266.334 215.648,266.334C226.045,266.334 234.498,256.575 234.498,244.583C234.498,232.591 226.045,222.833 215.648,222.833ZM215.648,261.825C208.05,261.825 201.306,253.776 201.306,244.583C201.306,235.389 208.049,227.34 215.648,227.34C223.247,227.34 229.99,235.389 229.99,244.583C229.99,253.776 223.247,261.825 215.648,261.825Z" style="fill:rgb(201,102,84);fill-rule:nonzero;"/>
    </g>
    <g transform="matrix(1,0,0,1,-2.66688,-24.285)">
        <path d="M127.882,261.456C127.882,261.456 122.77,258.66 121.765,259.435C120.34,260.533 124.552,264.62 124.552,264.62C124.552,264.62 136.077,276.116 140.496,274.967C144.904,267.374 127.882,261.456 127.882,261.456ZM137.205,303.207C130.426,299.509 129.81,296.455 125.804,294.298C121.491,300.461 124.089,299.036 129.019,306.739C129.019,306.739 126.561,308.253 127.793,310.718C130.448,316.027 138.525,317.979 143.505,323.894C140.772,326.4 127.923,318.395 123.609,313.773C121.452,315.082 107.308,321.166 110.094,331.195C111.635,336.741 112.152,340.796 112.152,340.796C112.152,340.796 107.776,340.864 102.762,336.987C100.074,341.477 69.948,348.792 68.715,362.349L102.191,362.349C103.115,357.728 115.823,344.543 118.288,343.311C119.869,345.776 109.801,359.884 109.801,362.349L128.852,362.349C142.665,351.994 122.2,334.001 124.619,332.042C127.038,330.082 140.903,340.423 143.368,350.591C144.292,355.213 144.6,359.527 143.984,362.916L161.41,362.916L161.41,358.294C163.259,358.602 163.259,362.916 164.183,362.916L174.66,362.916C173.267,348.891 162.593,346.144 160.277,344.379C160.277,342.53 156.001,341.298 156.001,340.065C149.057,343.274 129.042,327.307 130.433,324.49C131.448,322.434 147.309,334.655 154.571,337.254C152.414,329.551 151.273,321.02 151.813,312.383C152.121,307.453 149.31,299.293 149.31,294.055C149.31,286.66 152.677,263.714 152.677,263.714C151.852,258.592 139.007,255.239 137.623,252.944C136.734,251.469 136.219,247.936 138.36,245.663C149.209,234.148 184.929,221.937 186.028,215.03C186.676,210.955 164.657,225.252 165.251,219.683C166.364,209.23 172.081,201.31 171.109,198.446C169.557,193.878 164.095,202.385 155.591,221.102C153.363,226.005 135.073,236.777 136.211,233.492C145.041,207.988 143.032,160.445 140.173,160.006C137.543,155.662 132.475,248.817 116.615,240.857C103.527,234.288 99.266,188.376 94.984,187.403C93.056,186.965 86.699,197.079 95.749,231.355C97.027,236.196 65.981,222.207 65.919,226.302C65.871,229.419 107.838,247.62 117.881,264.353C119.942,267.788 122.921,272.475 123.229,275.556C125.694,276.789 125.683,285.009 126.387,290.247C132.549,296.102 145.72,301.156 145.183,303.805C144.614,306.609 137.205,303.207 137.205,303.207Z" style="fill:rgb(201,102,84);"/>
    </g>
    <g transform="matrix(1,0,0,1,-2.66688,-169.557)">
        <path d="M117.406,322.576C126.665,320.629 131.173,330.14 132.656,342.161C132.656,342.161 113.891,343.221 117.406,322.576Z" style="fill:rgb(201,102,84);"/>
    </g>
    <g transform="matrix(1,0,0,1,-2.66688,-133.517)">
        <path d="M39.838,303.314C53.662,302.774 62.028,312.887 66.171,325.036C66.171,325.036 37.699,323.268 39.838,303.314Z" style="fill:rgb(201,102,84);"/>
    </g>
    <g transform="matrix(1,0,0,1,-2.66688,-143.363)">
        <path d="M73.934,314.393C81.275,313.169 85.864,318.063 88.922,323.875C88.922,323.875 73.934,324.487 73.934,314.393Z" style="fill:rgb(201,102,84);"/>
    </g>
    <g transform="matrix(1,0,0,1,-2.66688,-186.944)">
        <path d="M192.885,334.985C192.029,343.873 184.913,347.664 177.204,349.397C177.204,349.397 181.146,331.84 192.885,334.985Z" style="fill:rgb(201,102,84);"/>
    </g>
    <g transform="matrix(1,0,0,1,-2.66688,-239.101)">
        <path d="M164.128,356.797C165.428,366.826 158.701,373.003 150.231,376.933C150.231,376.933 149.711,356.461 164.128,356.797Z" style="fill:rgb(201,102,84);"/>
    </g>
    <g transform="matrix(1,0,0,1,-2.66688,-124.728)">
        <path d="M209.187,302.676C196.484,300.7 192.314,307.672 187.669,316.42C187.669,316.42 210.748,318.321 209.187,302.676Z" style="fill:rgb(201,102,84);"/>
    </g>
    <g transform="matrix(1,0,0,1,-2.66688,-159.069)">
        <path d="M103.862,337.842C112.93,333.877 114.791,324.782 113.844,315.52C113.844,315.52 96.112,326.104 103.862,337.842Z" style="fill:rgb(201,102,84);"/>
    </g>
    <g transform="matrix(1,0,0,1,-2.66688,-110.756)">
        <path d="M72.744,293.858C70.33,301.278 74.551,306.92 80.098,311.191C80.098,311.191 83.409,295.741 72.744,293.858Z" style="fill:rgb(201,102,84);"/>
    </g>
    <g transform="matrix(1,0,0,1,-2.66688,-140.303)">
        <path d="M157.264,307.338C148.006,309.691 144.334,318.509 143.57,327.258C143.57,327.258 162.617,320.406 157.264,307.338Z" style="fill:rgb(201,102,84);"/>
    </g>
    <g transform="matrix(1,0,0,1,-2.66688,-203.53)">
        <path d="M107.969,338.005C99.191,341.774 96.939,351.057 97.549,359.818C97.549,359.818 115.295,350.078 107.969,338.005Z" style="fill:rgb(201,102,84);"/>
    </g>
    <g transform="matrix(1,0,0,1,-2.66688,-66.841)">
        <path d="M69.461,278.636C65.323,288.291 55.392,290.498 45.737,289.67C45.737,289.67 56.495,270.636 69.461,278.636Z" style="fill:rgb(201,102,84);"/>
    </g>
    <g transform="matrix(1,0,0,1,-2.66688,-31.181)">
        <path d="M82.092,257.275C71.643,253 62.618,258.225 55.969,265.824C55.969,265.824 77.817,272.474 82.092,257.275Z" style="fill:rgb(201,102,84);"/>
    </g>
    <g transform="matrix(1,0,0,1,-2.66688,-70.953)">
        <path d="M52.983,278.086C44.069,273.357 35.557,277.534 29.179,284.515C29.179,284.515 48.698,291.889 52.983,278.086Z" style="fill:rgb(201,102,84);"/>
    </g>
    <g transform="matrix(1,0,0,1,-2.66688,-112.308)">
        <path d="M112.953,292.757C122.251,295.817 125.238,304.736 125.201,313.844C125.201,313.844 106.454,305.305 112.953,292.757Z" style="fill:rgb(201,102,84);"/>
    </g>
    <g transform="matrix(1,0,0,1,-2.66688,-149.461)">
        <path d="M194.068,311.855C183.215,313.483 178.405,322.321 176.996,331.899C176.996,331.899 198.27,326.4 194.068,311.855Z" style="fill:rgb(201,102,84);"/>
    </g>
    <g transform="matrix(1,0,0,1,-2.66688,-103.096)">
        <path d="M33.017,293.34C42.795,289.149 51.177,294.737 57.696,302.187C57.696,302.187 36.277,308.24 33.017,293.34Z" style="fill:rgb(201,102,84);"/>
    </g>
    <g transform="matrix(1,0,0,1,-2.66688,-219.44)">
        <path d="M118.52,347.551C128.072,349.18 131.959,357.511 133.232,366.182C133.232,366.182 114.203,360.183 118.52,347.551Z" style="fill:rgb(201,102,84);"/>
    </g>
    <g transform="matrix(1,0,0,1,-2.66688,-167.381)">
        <path d="M166.222,316.706C159.071,325.97 162.873,336.584 169.114,344.968C169.114,344.968 180.671,324.033 166.222,316.706Z" style="fill:rgb(201,102,84);"/>
    </g>
    <g transform="matrix(1,0,0,1,-2.66688,-260.09)">
        <path d="M128.57,364.174C124.584,375.177 131.44,384.126 139.94,390.209C139.94,390.209 144.564,366.748 128.57,364.174Z" style="fill:rgb(201,102,84);"/>
    </g>
    <g transform="matrix(1,0,0,1,-2.66688,-183.437)">
        <path d="M158.79,330.351C150.554,332.572 147.488,339.745 146.874,347.379C146.874,347.379 163.001,341.5 158.79,330.351Z" style="fill:rgb(201,102,84);"/>
    </g>
    <g transform="matrix(1,0,0,1,-2.66688,-186.546)">
        <path d="M66.349,331.767C77.982,331.049 84.673,339.946 87.936,349.79C87.936,349.79 63.744,348.659 66.349,331.767Z" style="fill:rgb(201,102,84);"/>
    </g>
    <g transform="matrix(1,0,0,1,-2.66688,-217.393)">
        <path d="M81.185,344.083C78.195,353.498 84.041,361.905 91.672,367.603C91.672,367.603 94.943,346.988 81.185,344.083Z" style="fill:rgb(201,102,84);"/>
    </g>
    <g transform="matrix(2.07712,0,0,2.07712,332.02,-519.964)">
        <text x="0px" y="381.424px" style="font-family:'Poppins-SemiBold', 'Poppins';font-weight:600;font-size:126px;fill:rgb(201,102,84);">Oliva</text>
    </g>
    <g transform="matrix(2.07712,0,0,2.07712,332.02,-519.964)">
        <text x="11px" y="410.384px" style="font-family:'Poppins-Regular', 'Poppins';font-size:30px;fill:rgb(201,102,84);">H O <tspan x="71.54px " y="410.384px ">M</tspan> E <tspan x="145.07px " y="410.384px ">S</tspan> T <tspan x="195.11px " y="410.384px ">A</tspan> G <tspan x="254.87px " y="410.384px ">I</tspan> N <tspan x="299.54px " y="410.384px ">G</tspan></text>
    </g>
</svg>
