<?xml version="1.0" encoding="UTF-8" standalone="no"?>
<!DOCTYPE svg PUBLIC "-//W3C//DTD SVG 1.1//EN" "http://www.w3.org/Graphics/SVG/1.1/DTD/svg11.dtd">
<svg width="100%" height="100%" viewBox="0 0 417 417" version="1.1" xmlns="http://www.w3.org/2000/svg" xmlns:xlink="http://www.w3.org/1999/xlink" xml:space="preserve" xmlns:serif="http://www.serif.com/" style="fill-rule:evenodd;clip-rule:evenodd;stroke-linejoin:round;stroke-miterlimit:2;">
    <g transform="matrix(5.12698,0,0,5.12698,-51.018752,-43.859071)">
        <path d="M33.117,48.758L39.191,48.758C40.082,48.758 40.808,48.031 40.808,47.141L40.808,41.676C40.808,40.785 40.082,40.059 39.191,40.059L33.117,40.059C32.226,40.059 31.5,40.785 31.5,41.676L31.5,47.141C31.5,48.031 32.226,48.758 33.117,48.758ZM32.769,41.672C32.769,41.485 32.929,41.324 33.117,41.324L39.191,41.324C39.379,41.324 39.539,41.485 39.539,41.672L39.539,47.137C39.539,47.324 39.379,47.485 39.191,47.485L33.117,47.485C32.929,47.485 32.769,47.324 32.769,47.137L32.769,41.672ZM57.234,48.758L63.309,48.758C64.199,48.758 64.926,48.031 64.926,47.141L64.926,41.676C64.926,40.785 64.199,40.059 63.309,40.059L57.234,40.059C56.344,40.059 55.617,40.785 55.617,41.676L55.617,47.141C55.617,48.031 56.344,48.758 57.234,48.758ZM56.887,41.672C56.887,41.485 57.047,41.324 57.234,41.324L63.309,41.324C63.496,41.324 63.656,41.485 63.656,41.672L63.656,47.137C63.656,47.324 63.496,47.485 63.309,47.485L57.234,47.485C57.047,47.485 56.887,47.324 56.887,47.137L56.887,41.672ZM45.176,48.758L51.25,48.758C52.141,48.758 52.867,48.031 52.867,47.141L52.867,41.676C52.867,40.785 52.141,40.059 51.25,40.059L45.176,40.059C44.285,40.059 43.558,40.785 43.558,41.676L43.558,47.141C43.558,48.031 44.285,48.758 45.176,48.758ZM44.828,41.672C44.828,41.485 44.988,41.324 45.176,41.324L51.25,41.324C51.437,41.324 51.598,41.485 51.598,41.672L51.598,47.137C51.598,47.324 51.437,47.485 51.25,47.485L45.176,47.485C44.988,47.485 44.828,47.324 44.828,47.137L44.828,41.672ZM33.117,59.902L39.191,59.902C40.082,59.902 40.808,59.176 40.808,58.285L40.808,52.82C40.808,51.929 40.082,51.203 39.191,51.203L33.117,51.203C32.226,51.203 31.5,51.929 31.5,52.82L31.5,58.285C31.5,59.176 32.226,59.902 33.117,59.902ZM32.769,52.82C32.769,52.633 32.93,52.472 33.117,52.472L39.191,52.472C39.379,52.472 39.539,52.633 39.539,52.82L39.539,58.285C39.539,58.472 39.379,58.633 39.191,58.633L33.117,58.633C32.93,58.633 32.769,58.472 32.769,58.285L32.769,52.82ZM21.058,59.902L27.133,59.902C28.023,59.902 28.75,59.176 28.75,58.285L28.75,52.82C28.75,51.929 28.023,51.203 27.133,51.203L21.058,51.203C20.168,51.203 19.441,51.929 19.441,52.82L19.441,58.285C19.441,59.176 20.168,59.902 21.058,59.902ZM20.711,52.82C20.711,52.633 20.871,52.472 21.058,52.472L27.133,52.472C27.32,52.472 27.48,52.633 27.48,52.82L27.48,58.285C27.48,58.472 27.32,58.633 27.133,58.633L21.058,58.633C20.871,58.633 20.711,58.472 20.711,58.285L20.711,52.82ZM57.234,59.902L63.308,59.902C64.199,59.902 64.925,59.176 64.925,58.285L64.925,52.82C64.925,51.929 64.199,51.203 63.308,51.203L57.234,51.203C56.343,51.203 55.617,51.929 55.617,52.82L55.617,58.285C55.617,59.176 56.343,59.902 57.234,59.902ZM56.886,52.82C56.886,52.633 57.046,52.472 57.234,52.472L63.308,52.472C63.495,52.472 63.656,52.633 63.656,52.82L63.656,58.285C63.656,58.472 63.495,58.633 63.308,58.633L57.234,58.633C57.046,58.633 56.886,58.472 56.886,58.285L56.886,52.82ZM45.175,59.902L51.249,59.902C52.14,59.902 52.866,59.176 52.866,58.285L52.866,52.82C52.866,51.929 52.14,51.203 51.249,51.203L45.175,51.203C44.284,51.203 43.558,51.929 43.558,52.82L43.558,58.285C43.558,59.176 44.284,59.902 45.175,59.902ZM44.827,52.82C44.827,52.633 44.988,52.472 45.175,52.472L51.249,52.472C51.437,52.472 51.597,52.633 51.597,52.82L51.597,58.285C51.597,58.472 51.437,58.633 51.249,58.633L45.175,58.633C44.988,58.633 44.827,58.472 44.827,58.285L44.827,52.82ZM33.116,71.05L39.191,71.05C40.081,71.05 40.808,70.324 40.808,69.433L40.808,63.968C40.808,63.077 40.081,62.351 39.191,62.351L33.116,62.351C32.226,62.351 31.499,63.077 31.499,63.968L31.499,69.433C31.499,70.324 32.226,71.05 33.116,71.05ZM32.769,63.964C32.769,63.777 32.929,63.617 33.116,63.617L39.191,63.617C39.378,63.617 39.538,63.777 39.538,63.964L39.538,69.429C39.538,69.617 39.378,69.777 39.191,69.777L33.116,69.777C32.929,69.777 32.769,69.617 32.769,69.429L32.769,63.964ZM21.058,71.05L27.132,71.05C28.023,71.05 28.749,70.324 28.749,69.433L28.749,63.968C28.749,63.077 28.023,62.351 27.132,62.351L21.058,62.351C20.167,62.351 19.441,63.077 19.441,63.968L19.441,69.433C19.441,70.324 20.167,71.05 21.058,71.05ZM20.71,63.964C20.71,63.777 20.87,63.617 21.058,63.617L27.132,63.617C27.319,63.617 27.48,63.777 27.48,63.964L27.48,69.429C27.48,69.617 27.319,69.777 27.132,69.777L21.058,69.777C20.87,69.777 20.71,69.617 20.71,69.429L20.71,63.964ZM57.233,71.05L63.307,71.05C64.198,71.05 64.924,70.324 64.924,69.433L64.924,63.968C64.924,63.077 64.198,62.351 63.307,62.351L57.233,62.351C56.342,62.351 55.616,63.077 55.616,63.968L55.616,69.433C55.616,70.324 56.342,71.05 57.233,71.05ZM56.885,63.964C56.885,63.777 57.046,63.617 57.233,63.617L63.307,63.617C63.495,63.617 63.655,63.777 63.655,63.964L63.655,69.429C63.655,69.617 63.495,69.777 63.307,69.777L57.233,69.777C57.046,69.777 56.885,69.617 56.885,69.429L56.885,63.964ZM45.174,71.05L51.249,71.05C52.139,71.05 52.866,70.324 52.866,69.433L52.866,63.968C52.866,63.077 52.139,62.351 51.249,62.351L45.174,62.351C44.284,62.351 43.557,63.077 43.557,63.968L43.557,69.433C43.557,70.324 44.284,71.05 45.174,71.05ZM44.827,63.964C44.827,63.777 44.987,63.617 45.174,63.617L51.249,63.617C51.436,63.617 51.596,63.777 51.596,63.964L51.596,69.429C51.596,69.617 51.436,69.777 51.249,69.777L45.174,69.777C44.987,69.777 44.827,69.617 44.827,69.429L44.827,63.964ZM69.292,48.757L75.366,48.757C76.257,48.757 76.983,48.031 76.983,47.14L76.983,41.675C76.983,40.785 76.257,40.058 75.366,40.058L69.292,40.058C68.401,40.058 67.675,40.785 67.675,41.675L67.675,47.14C67.675,48.031 68.401,48.757 69.292,48.757ZM68.948,41.671C68.948,41.484 69.108,41.324 69.296,41.324L75.37,41.324C75.557,41.324 75.718,41.484 75.718,41.671L75.718,47.136C75.718,47.324 75.557,47.484 75.37,47.484L69.296,47.484C69.108,47.484 68.948,47.324 68.948,47.136L68.948,41.671ZM69.292,59.901L75.366,59.901C76.257,59.901 76.983,59.175 76.983,58.284L76.983,52.819C76.983,51.929 76.257,51.202 75.366,51.202L69.292,51.202C68.401,51.202 67.675,51.929 67.675,52.819L67.675,58.284C67.675,59.175 68.401,59.901 69.292,59.901ZM68.948,52.819C68.948,52.632 69.108,52.472 69.296,52.472L75.37,52.472C75.557,52.472 75.718,52.632 75.718,52.819L75.718,58.284C75.718,58.472 75.557,58.632 75.37,58.632L69.296,58.632C69.108,58.632 68.948,58.472 68.948,58.284L68.948,52.819ZM85.995,24.671L85.995,24.265C85.995,22.261 84.366,20.632 82.362,20.632L76.401,20.632L76.401,17.371C76.401,15.499 74.882,13.98 73.011,13.98C71.14,13.98 69.62,15.499 69.62,17.371L69.62,20.632L59.87,20.632L59.87,17.371C59.87,15.499 58.351,13.98 56.479,13.98C54.608,13.98 53.089,15.499 53.089,17.371L53.089,20.632L43.339,20.632L43.339,17.371C43.339,15.499 41.819,13.98 39.948,13.98C38.077,13.98 36.558,15.499 36.558,17.371L36.558,20.632L26.808,20.632L26.808,17.371C26.808,15.499 25.288,13.98 23.417,13.98C21.546,13.98 20.026,15.499 20.026,17.371L20.026,20.632L14.066,20.632C12.062,20.632 10.433,22.261 10.433,24.265L10.433,78.355C10.433,80.339 12.03,81.949 14.007,81.984L14.007,82.39C14.007,84.394 15.636,86.023 17.64,86.023L85.941,86.023C87.945,86.023 89.574,84.394 89.574,82.39L89.57,28.296C89.57,26.312 87.972,24.702 85.995,24.667L85.995,24.671ZM70.89,17.37C70.89,16.202 71.839,15.249 73.011,15.249C74.179,15.249 75.132,16.199 75.132,17.37L75.132,21.218C75.132,21.234 75.124,21.249 75.124,21.265C75.124,21.281 75.132,21.296 75.132,21.312L75.132,25.238C75.132,26.406 74.183,27.359 73.011,27.359C71.843,27.359 70.89,26.41 70.89,25.238L70.89,17.367L70.89,17.37ZM73.011,28.628C74.882,28.628 76.402,27.109 76.402,25.238L76.402,21.902L77.077,21.902L77.077,25.921C77.077,27.953 75.234,29.609 72.968,29.609C70.702,29.609 68.859,27.957 68.859,25.921L68.859,21.902L69.62,21.902L69.62,25.238C69.62,27.109 71.14,28.628 73.011,28.628L73.011,28.628ZM54.359,17.37C54.359,16.202 55.308,15.249 56.48,15.249C57.648,15.249 58.601,16.199 58.601,17.37L58.601,21.218C58.601,21.234 58.59,21.249 58.59,21.265C58.59,21.281 58.597,21.296 58.601,21.312L58.601,25.238C58.601,26.406 57.652,27.359 56.48,27.359C55.312,27.359 54.359,26.41 54.359,25.238L54.359,17.367L54.359,17.37ZM56.476,28.628C58.347,28.628 59.867,27.109 59.867,25.238L59.867,21.902L60.55,21.902L60.55,25.921C60.55,27.953 58.707,29.609 56.441,29.609C54.175,29.609 52.332,27.957 52.332,25.921L52.332,21.902L53.089,21.902L53.089,25.238C53.089,27.109 54.609,28.628 56.48,28.628L56.476,28.628ZM37.824,17.37C37.824,16.202 38.774,15.249 39.945,15.249C41.113,15.249 42.066,16.199 42.066,17.37L42.066,21.218C42.066,21.234 42.059,21.249 42.059,21.265C42.059,21.281 42.066,21.296 42.066,21.312L42.066,25.238C42.066,26.406 41.117,27.359 39.945,27.359C38.777,27.359 37.824,26.41 37.824,25.238L37.824,17.367L37.824,17.37ZM39.945,28.628C41.816,28.628 43.336,27.109 43.336,25.238L43.336,21.902L44.094,21.902L44.094,25.921C44.094,27.953 42.25,29.609 39.984,29.609C37.719,29.609 35.875,27.957 35.875,25.921L35.875,21.902L36.559,21.902L36.559,25.238C36.559,27.109 38.078,28.628 39.949,28.628L39.945,28.628ZM21.293,17.37C21.293,16.202 22.243,15.249 23.414,15.249C24.582,15.249 25.536,16.199 25.536,17.37L25.536,21.218C25.536,21.234 25.528,21.249 25.528,21.265C25.528,21.281 25.536,21.296 25.536,21.312L25.536,25.238C25.536,26.406 24.586,27.359 23.414,27.359C22.246,27.359 21.293,26.41 21.293,25.238L21.293,17.367L21.293,17.37ZM23.414,28.628C25.286,28.628 26.805,27.109 26.805,25.238L26.805,21.902L27.489,21.902L27.489,25.921C27.489,27.953 25.645,29.609 23.379,29.609C21.114,29.609 19.27,27.957 19.27,25.921L19.27,21.902L20.028,21.902L20.028,25.238C20.028,27.109 21.547,28.628 23.418,28.628L23.414,28.628ZM14.063,21.902L17.993,21.902L17.993,25.921C17.993,28.656 20.407,30.878 23.375,30.878C26.344,30.878 28.758,28.656 28.758,25.921L28.758,21.902L34.602,21.902L34.602,25.921C34.602,28.656 37.016,30.878 39.985,30.878C42.953,30.878 45.368,28.656 45.368,25.921L45.368,21.902L51.063,21.902L51.063,25.921C51.063,28.656 53.477,30.878 56.446,30.878C59.414,30.878 61.828,28.656 61.828,25.921L61.828,21.902L67.59,21.902L67.59,25.921C67.59,28.656 70.004,30.878 72.973,30.878C75.942,30.878 78.356,28.656 78.356,25.921L78.356,21.902L82.371,21.902C83.672,21.902 84.735,22.96 84.735,24.265L84.735,33.691L11.7,33.691L11.7,24.265C11.7,22.964 12.758,21.902 14.063,21.902L14.063,21.902ZM11.7,78.355L11.7,34.964L84.727,34.964L84.727,74.46C84.727,78.616 84.723,80.706 79.652,80.714C77.914,80.55 76.637,79.897 75.855,78.772C74.316,76.55 74.953,73.077 75.469,71.206C75.527,70.995 75.473,70.772 75.328,70.612C75.184,70.452 74.965,70.374 74.75,70.413L14.586,80.718L14.063,80.718C12.762,80.718 11.699,79.659 11.699,78.355L11.7,78.355ZM74.809,79.495C75.137,79.972 75.535,80.37 75.988,80.714L22.113,80.714L74.004,71.824C73.524,74.003 73.231,77.21 74.809,79.492L74.809,79.495ZM88.301,82.386C88.301,83.687 87.242,84.749 85.937,84.749L17.636,84.749C16.335,84.749 15.273,83.691 15.273,82.386L15.273,81.988L79.613,81.988C85.996,81.988 85.996,78.667 85.996,74.46L85.996,25.94C87.269,25.972 88.297,27.015 88.297,28.296L88.297,82.386L88.301,82.386Z" style="fill:rgb(86,122,95);fill-rule:nonzero;"/>
    </g>
</svg>
