<?xml version="1.0" encoding="UTF-8" standalone="no"?>
<!DOCTYPE svg PUBLIC "-//W3C//DTD SVG 1.1//EN" "http://www.w3.org/Graphics/SVG/1.1/DTD/svg11.dtd">
<svg width="100%" height="100%" viewBox="0 0 417 417" version="1.1" xmlns="http://www.w3.org/2000/svg" xmlns:xlink="http://www.w3.org/1999/xlink" xml:space="preserve" xmlns:serif="http://www.serif.com/" style="fill-rule:evenodd;clip-rule:evenodd;stroke-linejoin:round;stroke-miterlimit:2;">
    <g transform="matrix(0.833223,0,0,0.833223,-6.971696,-2.075564)">
        <path d="M454.563,224.591C447.875,221.994 441.784,217.822 436.946,212.527L373.583,143.17C360.954,129.346 342.972,121.417 324.248,121.417L238.512,121.417C232.989,121.417 228.512,125.894 228.512,131.417L228.512,233.199L224.259,233.199L224.259,89.936C224.259,84.414 219.782,79.936 214.259,79.936L35.221,79.936C29.698,79.936 25.221,84.414 25.221,89.936L25.221,233.198L24.808,233.198C19.285,233.198 14.808,237.676 14.808,243.198L14.808,371.857C14.808,377.379 19.285,381.857 24.808,381.857L48.926,381.857C53.849,410.331 78.713,432.063 108.572,432.063C138.431,432.063 163.295,410.331 168.218,381.857L331.621,381.857C336.544,410.331 361.407,432.063 391.267,432.063C422.309,432.063 447.955,408.578 451.407,378.444C477.973,369.606 497.192,344.53 497.192,315.033L497.192,286.882C497.191,259.1 480.459,234.65 454.563,224.591ZM391.267,412.063C368.909,412.063 350.719,393.874 350.719,371.516C350.719,349.158 368.908,330.967 391.267,330.967C413.626,330.967 431.815,349.157 431.815,371.516C431.814,393.874 413.625,412.063 391.267,412.063ZM168.341,361.857C167.556,356.983 166.195,352.299 164.316,347.885L335.524,347.885C333.645,352.299 332.284,356.983 331.499,361.857L168.341,361.857ZM68.024,371.516C68.024,349.158 86.214,330.967 108.572,330.967C130.93,330.967 149.12,349.157 149.12,371.516C149.12,393.873 130.93,412.063 108.572,412.063C86.214,412.063 68.024,393.874 68.024,371.516ZM34.809,361.857L34.809,347.885L52.829,347.885C50.951,352.299 49.589,356.983 48.805,361.857L34.809,361.857ZM140.615,131.688L108.863,131.688L108.863,99.936L140.615,99.936L140.615,131.688ZM45.221,99.936L88.863,99.936L88.863,141.688C88.863,147.211 93.34,151.688 98.863,151.688L150.615,151.688C156.138,151.688 160.615,147.211 160.615,141.688L160.615,99.936L204.257,99.936L204.257,233.198L45.221,233.198L45.221,99.936ZM34.809,253.198L238.511,253.198C244.034,253.198 248.511,248.721 248.511,243.198L248.511,141.416L324.247,141.416C333.293,141.416 342.09,144.059 349.582,148.873L299,148.873C293.477,148.873 289,153.35 289,158.873L289,238.727C289,244.249 293.477,248.727 299,248.727L457.544,248.727C465.645,254.455 471.645,262.56 474.764,271.9L450.011,271.9C444.489,271.9 440.011,276.378 440.011,281.9C440.011,287.423 444.489,291.9 450.011,291.9L477.192,291.9L477.192,315.034C477.192,319.491 476.553,323.8 475.383,327.887L433.184,327.887C422.295,317.422 407.525,310.969 391.267,310.969C375.008,310.969 360.239,317.422 349.35,327.887L150.489,327.887C139.601,317.422 124.83,310.969 108.572,310.969C92.314,310.969 77.544,317.422 66.655,327.887L34.809,327.887L34.809,253.198ZM424.805,228.726L309,228.726L309,168.872L369.977,168.872L422.18,226.015C423.027,226.944 423.904,227.847 424.805,228.726ZM450.149,357.459C449.361,354.157 448.316,350.954 447.009,347.886L463.691,347.886C459.804,351.829 455.223,355.084 450.149,357.459Z" style="fill:rgb(86,122,95);fill-rule:nonzero;"/>
    </g>
</svg>
