<?xml version="1.0" encoding="UTF-8" standalone="no"?>
<!DOCTYPE svg PUBLIC "-//W3C//DTD SVG 1.1//EN" "http://www.w3.org/Graphics/SVG/1.1/DTD/svg11.dtd">
<svg width="100%" height="100%" viewBox="0 0 417 417" version="1.1" xmlns="http://www.w3.org/2000/svg" xmlns:xlink="http://www.w3.org/1999/xlink" xml:space="preserve" xmlns:serif="http://www.serif.com/" style="fill-rule:evenodd;clip-rule:evenodd;stroke-linejoin:round;stroke-miterlimit:2;">
    <g transform="matrix(4.166667,0,0,4.166667,75,41.666667)">
        <g transform="matrix(1.52125,0,0,1.52125,-17.04,-8.31)">
            <path d="M39,34L39,29C39,26.243 36.757,24 34,24L10,24C7.243,24 5,26.243 5,29L5,34C2.243,34 0,36.243 0,39L0,49C0,50.654 1.346,52 3,52L3,55C3,55.553 3.448,56 4,56L8,56C8.552,56 9,55.553 9,55L9,52L35,52L35,55C35,55.553 35.448,56 36,56L40,56C40.552,56 41,55.553 41,55L41,52C42.654,52 44,50.654 44,49L44,39C44,36.243 41.757,34 39,34ZM7,29C7,27.346 8.346,26 10,26L34,26C35.654,26 37,27.346 37,29L37,34L34.816,34C34.928,33.686 35,33.353 35,33L35,31C35,29.346 33.654,28 32,28L26,28C24.346,28 23,29.346 23,31L23,33C23,33.353 23.072,33.686 23.185,34L20.816,34C20.928,33.686 21,33.353 21,33L21,31C21,29.346 19.654,28 18,28L12,28C10.346,28 9,29.346 9,31L9,33C9,33.353 9.072,33.686 9.185,34L7,34L7,29ZM25,33L25,31C25,30.448 25.449,30 26,30L32,30C32.551,30 33,30.448 33,31L33,33C33,33.552 32.551,34 32,34L26,34C25.449,34 25,33.552 25,33ZM11,33L11,31C11,30.448 11.449,30 12,30L18,30C18.551,30 19,30.448 19,31L19,33C19,33.552 18.551,34 18,34L12,34C11.449,34 11,33.552 11,33ZM7,54L5,54L5,52L7,52L7,54ZM39,54L37,54L37,52L39,52L39,54ZM41,50L3,50C2.449,50 2,49.552 2,49L2,39C2,37.346 3.346,36 5,36L39,36C40.654,36 42,37.346 42,39L42,46L29,46C28.448,46 28,46.447 28,47C28,47.553 28.448,48 29,48L42,48L42,49C42,49.552 41.551,50 41,50Z" style="fill:rgb(86,122,95);fill-rule:nonzero;"/>
        </g>
        <g transform="matrix(1.52125,0,0,1.52125,-17.04,-8.31)">
            <path d="M60,34L59.444,34C59.788,33.409 60,32.731 60,32L60,29C60,28.447 59.552,28 59,28L57,28L57,26L61,26C61.007,26 61.014,25.999 61.02,26C61.572,26 62.02,25.553 62.02,25C62.02,24.82 61.972,24.651 61.889,24.505L59.949,18.684C59.812,18.275 59.431,18 59,18L53,18C52.569,18 52.188,18.275 52.051,18.684L50.051,24.684C49.949,24.989 50.001,25.325 50.189,25.585C50.377,25.846 50.679,26 51,26L55,26L55,28L53,28C52.448,28 52,28.447 52,29L52,32C52,32.731 52.212,33.409 52.556,34L52,34C49.794,34 48,35.794 48,38L48,49C48,50.654 49.346,52 51,52L53,52L53,54C52.448,54 52,54.447 52,55C52,55.553 52.448,56 53,56L59,56C59.552,56 60,55.553 60,55C60,54.447 59.552,54 59,54L59,52L61,52C62.654,52 64,50.654 64,49L64,38C64,35.794 62.206,34 60,34ZM53.721,20L58.28,20L59.613,24L52.387,24L53.721,20ZM54,32L54,30L58,30L58,32C58,33.103 57.103,34 56,34C54.897,34 54,33.103 54,32ZM57,54L55,54L55,52L57,52L57,54ZM61,50L51,50C50.449,50 50,49.552 50,49L50,38C50,36.897 50.897,36 52,36L60,36C61.103,36 62,36.897 62,38L62,46L58,46C57.448,46 57,46.447 57,47C57,47.553 57.448,48 58,48L62,48L62,49C62,49.552 61.551,50 61,50Z" style="fill:rgb(86,122,95);fill-rule:nonzero;"/>
        </g>
        <g transform="matrix(1.52125,0,0,1.52125,-17.04,-8.31)">
            <path d="M24.29,46.29C24.11,46.479 24,46.74 24,47C24,47.26 24.11,47.52 24.29,47.71C24.48,47.89 24.74,48 25,48C25.26,48 25.52,47.89 25.71,47.71C25.89,47.52 26,47.26 26,47C26,46.74 25.89,46.479 25.71,46.29C25.34,45.92 24.66,45.92 24.29,46.29Z" style="fill:rgb(86,122,95);fill-rule:nonzero;"/>
        </g>
        <g transform="matrix(1.52125,0,0,1.52125,-17.04,-8.31)">
            <path d="M53.21,46.29C53.02,46.479 52.92,46.74 52.92,47C52.92,47.26 53.02,47.52 53.21,47.71C53.4,47.89 53.65,48 53.92,48C54.18,48 54.44,47.89 54.62,47.71C54.811,47.52 54.92,47.26 54.92,47C54.92,46.74 54.81,46.479 54.63,46.29C54.26,45.92 53.58,45.92 53.21,46.29Z" style="fill:rgb(86,122,95);fill-rule:nonzero;"/>
        </g>
        <g transform="matrix(1.52125,0,0,1.52125,-17.04,-8.31)">
            <path d="M14,18C15.654,18 17,19.346 17,21C17,21.553 17.448,22 18,22C18.552,22 19,21.553 19,21C19,19.346 20.346,18 22,18C22.552,18 23,17.553 23,17C23,16.447 22.552,16 22,16C20.346,16 19,14.654 19,13C19,12.447 18.552,12 18,12C17.448,12 17,12.447 17,13C17,14.654 15.654,16 14,16C13.448,16 13,16.447 13,17C13,17.553 13.448,18 14,18ZM18,15.997C18.285,16.377 18.624,16.715 19.003,17C18.624,17.285 18.285,17.623 18,18.003C17.715,17.623 17.376,17.285 16.997,17C17.376,16.715 17.715,16.377 18,15.997Z" style="fill:rgb(86,122,95);fill-rule:nonzero;"/>
        </g>
        <g transform="matrix(1.52125,0,0,1.52125,-17.04,-8.31)">
            <path d="M50,13C50,12.447 49.552,12 49,12C47.346,12 46,10.654 46,9C46,8.447 45.552,8 45,8C44.448,8 44,8.447 44,9C44,10.654 42.654,12 41,12C40.448,12 40,12.447 40,13C40,13.553 40.448,14 41,14C42.654,14 44,15.346 44,17C44,17.553 44.448,18 45,18C45.552,18 46,17.553 46,17C46,15.346 47.346,14 49,14C49.552,14 50,13.553 50,13ZM45,14.003C44.715,13.623 44.376,13.285 43.997,13C44.376,12.715 44.715,12.377 45,11.997C45.285,12.377 45.624,12.715 46.003,13C45.624,13.285 45.285,13.623 45,14.003Z" style="fill:rgb(86,122,95);fill-rule:nonzero;"/>
        </g>
        <g transform="matrix(1.52125,0,0,1.52125,-17.04,-8.31)">
            <path d="M3,15L4,15L4,16C4,16.553 4.448,17 5,17C5.552,17 6,16.553 6,16L6,15L7,15C7.552,15 8,14.553 8,14C8,13.447 7.552,13 7,13L6,13L6,12C6,11.447 5.552,11 5,11C4.448,11 4,11.447 4,12L4,13L3,13C2.448,13 2,13.447 2,14C2,14.553 2.448,15 3,15Z" style="fill:rgb(86,122,95);fill-rule:nonzero;"/>
        </g>
        <g transform="matrix(1.52125,0,0,1.52125,-17.04,-8.31)">
            <path d="M31,20L32,20L32,21C32,21.553 32.448,22 33,22C33.552,22 34,21.553 34,21L34,20L35,20C35.552,20 36,19.553 36,19C36,18.447 35.552,18 35,18L34,18L34,17C34,16.447 33.552,16 33,16C32.448,16 32,16.447 32,17L32,18L31,18C30.448,18 30,18.447 30,19C30,19.553 30.448,20 31,20Z" style="fill:rgb(86,122,95);fill-rule:nonzero;"/>
        </g>
    </g>
</svg>
