<?xml version="1.0" encoding="UTF-8" standalone="no"?>
<!DOCTYPE svg PUBLIC "-//W3C//DTD SVG 1.1//EN" "http://www.w3.org/Graphics/SVG/1.1/DTD/svg11.dtd">
<svg width="100%" height="100%" viewBox="0 0 417 417" version="1.1" xmlns="http://www.w3.org/2000/svg" xmlns:xlink="http://www.w3.org/1999/xlink" xml:space="preserve" xmlns:serif="http://www.serif.com/" style="fill-rule:evenodd;clip-rule:evenodd;stroke-linejoin:round;stroke-miterlimit:2;">
    <g transform="matrix(6.89874,0,0,6.89874,-7.588657,-11.721859)">
        <path d="M33,16.816C34.195,16.395 34.999,15.26 34.999,13.993C34.999,12.351 33.648,11 32.006,11C32.004,11 32.002,11 32,11C31.451,11 31,10.549 31,10C31,9.451 31.451,9 32,9C32.549,9 33,9.451 33,10L35,10C34.995,8.736 34.192,7.605 33,7.184L33,6L31,6L31,7.184C29.805,7.605 29.001,8.74 29.001,10.007C29.001,11.649 30.352,13 31.994,13C31.996,13 31.998,13 32,13C32.549,13 33,13.451 33,14C33,14.549 32.549,15 32,15C31.451,15 31,14.549 31,14L29,14C29.005,15.264 29.808,16.395 31,16.816L31,18L33,18L33,16.816Z" style="fill:rgb(0,0,0);fill-rule:nonzero;"/>
        <path d="M16.16,53.764L17.651,59.728C17.984,61.059 19.19,62 20.562,62L23.562,62C24.85,62 26.001,61.171 26.408,59.949L27.721,56L36.279,56L37.6,59.949C38.007,61.169 39.155,61.998 40.441,62L43.441,62C44.813,62 46.019,61.059 46.352,59.728L47.843,53.764C52.279,51.045 54.994,46.203 55,41C54.999,37.537 54.216,34.119 52.711,31L53,31C53.549,31 54,30.549 54,30C53.993,23.968 49.032,19.007 43,19C42.451,19 42,19.451 42,20L42,20.289C41.034,19.823 40.037,19.426 39.015,19.1C40.924,17.221 42.001,14.651 42.001,11.972C42.001,6.486 37.487,1.972 32.001,1.972C26.515,1.972 22.001,6.486 22.001,11.972C22.001,14.651 23.078,17.221 24.987,19.1C23.965,19.427 22.966,19.826 22,20.293L22,20C22,19.451 21.549,19 21,19C14.968,19.007 10.007,23.968 10,30C10,30.549 10.451,31 11,31L11.289,31C9.784,34.119 9.001,37.537 9,41C9.007,46.204 11.723,51.046 16.16,53.764ZM24.507,59.316C24.371,59.723 23.988,60 23.559,60L20.559,60C20.101,60 19.699,59.686 19.588,59.242L18.515,54.948C20.261,55.641 22.122,55.998 24,56L25.612,56L24.507,59.316ZM44.407,59.242C44.296,59.686 43.894,60 43.436,60L40.436,60C40.007,60 39.624,59.723 39.488,59.316L38.388,56L40,56C41.877,55.998 43.737,55.641 45.482,54.948L44.407,59.242ZM44,21.055C48.161,21.527 51.473,24.839 51.945,29L44,29L44,21.055ZM24,12C24,11.995 24,11.99 24,11.984C24,7.596 27.611,3.984 32,3.984C36.389,3.984 40,7.596 40,11.984C40,14.558 38.758,16.98 36.667,18.482C33.588,17.84 30.408,17.84 27.329,18.482C25.243,16.984 24.002,14.568 24,12ZM20,21.055L20,29L12.055,29C12.527,24.839 15.839,21.527 20,21.055ZM21,31C21.549,31 22,30.549 22,30L22,22.542C28.23,19.156 35.77,19.156 42,22.542L42,30C42,30.549 42.451,31 43,31L50.458,31C52.124,34.07 52.998,37.507 53,41C52.992,48.128 47.128,53.992 40,54L24,54C16.872,53.992 11.008,48.128 11,41C11.002,37.507 11.876,34.07 13.542,31L21,31Z" style="fill:rgb(0,0,0);fill-rule:nonzero;"/>
        <path d="M32,52C36.411,52 40,49.309 40,46C40,42.691 36.411,40 32,40C27.589,40 24,42.691 24,46C24,49.309 27.589,52 32,52ZM32,42C35.252,42 38,43.832 38,46C38,48.168 35.252,50 32,50C28.748,50 26,48.168 26,46C26,43.832 28.748,42 32,42Z" style="fill:rgb(0,0,0);fill-rule:nonzero;"/>
        <path d="M22,39C22.067,38.998 22.134,38.992 22.2,38.98C22.263,38.969 22.323,38.949 22.38,38.92C22.444,38.898 22.504,38.868 22.56,38.83L22.71,38.71C23.094,38.318 23.094,37.682 22.71,37.29L22.56,37.17C22.504,37.132 22.444,37.102 22.38,37.08C22.323,37.051 22.263,37.031 22.2,37.02C21.871,36.953 21.529,37.054 21.29,37.29C21.101,37.478 20.994,37.733 20.994,38C20.994,38.549 21.446,39 21.994,39C21.996,39 21.998,39 22,39Z" style="fill:rgb(0,0,0);fill-rule:nonzero;"/>
        <path d="M42,39C42.131,38.998 42.26,38.971 42.38,38.92C42.501,38.869 42.613,38.798 42.71,38.71C42.893,38.518 42.996,38.265 43,38C42.998,37.869 42.971,37.74 42.92,37.62C42.829,37.369 42.631,37.171 42.38,37.08C42.008,36.924 41.577,37.007 41.29,37.29C41.202,37.387 41.131,37.499 41.08,37.62C41.029,37.74 41.002,37.869 41,38C41,38.003 41,38.007 41,38.01C41,38.553 41.447,39 41.99,39C41.993,39 41.997,39 42,39Z" style="fill:rgb(0,0,0);fill-rule:nonzero;"/>
        <path d="M30,47C30.539,46.995 30.98,46.549 30.98,46.01C30.98,45.467 30.533,45.02 29.99,45.02C29.447,45.02 29,45.467 29,46.01C29,46.272 29.104,46.524 29.29,46.71C29.482,46.893 29.735,46.996 30,47Z" style="fill:rgb(0,0,0);fill-rule:nonzero;"/>
        <path d="M34,47C34.539,46.995 34.98,46.549 34.98,46.01C34.98,45.467 34.533,45.02 33.99,45.02C33.447,45.02 33,45.467 33,46.01C33,46.272 33.104,46.524 33.29,46.71C33.482,46.893 33.735,46.996 34,47Z" style="fill:rgb(0,0,0);fill-rule:nonzero;"/>
    </g>
</svg>
