<?xml version="1.0" encoding="UTF-8" standalone="no"?>
<!DOCTYPE svg PUBLIC "-//W3C//DTD SVG 1.1//EN" "http://www.w3.org/Graphics/SVG/1.1/DTD/svg11.dtd">
<svg width="100%" height="100%" viewBox="0 0 417 417" version="1.1" xmlns="http://www.w3.org/2000/svg" xmlns:xlink="http://www.w3.org/1999/xlink" xml:space="preserve" xmlns:serif="http://www.serif.com/" style="fill-rule:evenodd;clip-rule:evenodd;stroke-linejoin:round;stroke-miterlimit:2;">
    <g transform="matrix(4.502036,0,0,4.502036,-17.768476,-13.226316)">
        <path d="M85.262,89.383L14.739,89.383C9.52,89.383 5.274,85.137 5.274,79.918C5.274,79.379 5.712,78.942 6.251,78.942C6.79,78.942 7.227,79.379 7.227,79.918C7.227,84.063 10.598,87.43 14.739,87.43L85.262,87.43C89.407,87.43 92.774,84.059 92.774,79.918C92.774,79.379 93.211,78.942 93.75,78.942C94.293,78.942 94.727,79.379 94.727,79.918C94.727,85.137 90.481,89.383 85.262,89.383Z" style="fill:rgb(0,0,0);"/>
    </g>
    <g transform="matrix(4.502036,0,0,4.502036,-17.768476,-13.226316)">
        <path d="M85.262,70.449C88.321,70.449 91.043,71.906 92.774,74.164L92.774,20.086C92.774,15.941 89.403,12.574 85.262,12.574C81.121,12.574 77.75,15.945 77.75,20.086L77.75,74.164C79.485,71.906 82.207,70.449 85.262,70.449ZM93.75,80.89C93.211,80.89 92.774,80.453 92.774,79.913C92.774,75.769 89.403,72.402 85.262,72.402C81.121,72.402 77.75,75.773 77.75,79.913C77.75,80.453 77.313,80.89 76.774,80.89C76.235,80.89 75.797,80.453 75.797,79.913L75.797,20.081C75.797,14.863 80.043,10.617 85.262,10.617C90.481,10.617 94.727,14.863 94.727,20.081L94.727,79.913C94.727,80.453 94.289,80.89 93.75,80.89L93.75,80.89Z" style="fill:rgb(0,0,0);"/>
    </g>
    <g transform="matrix(4.502036,0,0,4.502036,-17.768476,-13.226316)">
        <path d="M14.738,12.57C10.597,12.57 7.226,15.941 7.226,20.086L7.226,74.164C8.961,71.906 11.683,70.449 14.738,70.449C17.797,70.449 20.519,71.906 22.25,74.164L22.25,20.086C22.25,15.941 18.879,12.574 14.738,12.574L14.738,12.57ZM23.226,80.89C22.687,80.89 22.25,80.452 22.25,79.913C22.25,75.769 18.883,72.402 14.738,72.402C10.597,72.402 7.226,75.773 7.226,79.913C7.226,80.452 6.789,80.89 6.25,80.89C5.711,80.89 5.273,80.452 5.273,79.913L5.273,20.081C5.273,14.863 9.519,10.617 14.738,10.617C19.961,10.617 24.203,14.863 24.203,20.081L24.203,79.913C24.203,80.452 23.765,80.89 23.226,80.89L23.226,80.89Z" style="fill:rgb(0,0,0);"/>
    </g>
    <g transform="matrix(4.502036,0,0,4.502036,-17.768476,-13.226316)">
        <path d="M76.773,21.062L23.23,21.062C22.691,21.062 22.253,20.625 22.253,20.085C22.253,19.546 22.691,19.109 23.23,19.109L76.773,19.109C77.312,19.109 77.75,19.546 77.75,20.085C77.75,20.625 77.312,21.062 76.773,21.062Z" style="fill:rgb(0,0,0);"/>
    </g>
    <g transform="matrix(4.502036,0,0,4.502036,-17.768476,-13.226316)">
        <path d="M30.406,79.598L33.765,79.598L33.765,69.68C33.765,69.426 33.554,69.215 33.301,69.215L30.871,69.215C30.617,69.215 30.406,69.43 30.406,69.68L30.406,79.598ZM34.742,81.551L29.429,81.551C28.89,81.551 28.453,81.114 28.453,80.575L28.453,69.68C28.453,68.348 29.539,67.262 30.871,67.262L33.301,67.262C34.633,67.262 35.719,68.347 35.719,69.68L35.719,80.575C35.719,81.114 35.281,81.551 34.742,81.551Z" style="fill:rgb(0,0,0);"/>
    </g>
    <g transform="matrix(4.502036,0,0,4.502036,-17.768476,-13.226316)">
        <path d="M32.09,84.164C31.551,84.164 31.113,83.727 31.113,83.187L31.113,80.574C31.113,80.035 31.551,79.598 32.09,79.598C32.629,79.598 33.067,80.035 33.067,80.574L33.067,83.184C33.067,83.723 32.629,84.16 32.09,84.16L32.09,84.164Z" style="fill:rgb(0,0,0);"/>
    </g>
    <g transform="matrix(4.502036,0,0,4.502036,-17.768476,-13.226316)">
        <path d="M48.418,79.598L51.777,79.598L51.777,69.68C51.777,69.426 51.566,69.215 51.313,69.215L48.883,69.215C48.629,69.215 48.418,69.43 48.418,69.68L48.418,79.598ZM52.754,81.551L47.441,81.551C46.902,81.551 46.465,81.114 46.465,80.575L46.465,69.68C46.465,68.348 47.551,67.262 48.883,67.262L51.313,67.262C52.645,67.262 53.731,68.347 53.731,69.68L53.731,80.575C53.731,81.114 53.297,81.551 52.754,81.551Z" style="fill:rgb(0,0,0);"/>
    </g>
    <g transform="matrix(4.502036,0,0,4.502036,-17.768476,-13.226316)">
        <path d="M50.098,84.164C49.559,84.164 49.121,83.727 49.121,83.187L49.121,80.574C49.121,80.035 49.559,79.598 50.098,79.598C50.637,79.598 51.075,80.035 51.075,80.574L51.075,83.184C51.075,83.723 50.637,84.16 50.098,84.16L50.098,84.164Z" style="fill:rgb(0,0,0);"/>
    </g>
    <g transform="matrix(4.502036,0,0,4.502036,-17.768476,-13.226316)">
        <path d="M50.098,69.215C49.559,69.215 49.121,68.778 49.121,68.238L49.121,59.25C49.121,57.942 48.059,56.879 46.75,56.879L35.438,56.879C34.13,56.879 33.067,57.942 33.067,59.25L33.067,68.238C33.067,68.778 32.63,69.215 32.091,69.215C31.552,69.215 31.114,68.778 31.114,68.238L31.114,59.25C31.114,56.867 33.052,54.926 35.438,54.926L46.75,54.926C49.133,54.926 51.075,56.867 51.075,59.25L51.075,68.238C51.075,68.778 50.637,69.215 50.098,69.215L50.098,69.215Z" style="fill:rgb(0,0,0);"/>
    </g>
    <g transform="matrix(4.502036,0,0,4.502036,-17.768476,-13.226316)">
        <path d="M47.441,79.391L34.742,79.391C34.203,79.391 33.765,78.954 33.765,78.414C33.765,77.875 34.203,77.438 34.742,77.438L47.441,77.438C47.98,77.438 48.418,77.875 48.418,78.414C48.418,78.954 47.98,79.391 47.441,79.391Z" style="fill:rgb(0,0,0);"/>
    </g>
    <g transform="matrix(4.502036,0,0,4.502036,-17.768476,-13.226316)">
        <path d="M47.441,70.656L34.742,70.656C34.203,70.656 33.765,70.219 33.765,69.679C33.765,69.14 34.203,68.703 34.742,68.703L47.441,68.703C47.98,68.703 48.418,69.14 48.418,69.679C48.418,70.219 47.98,70.656 47.441,70.656Z" style="fill:rgb(0,0,0);"/>
    </g>
    <g transform="matrix(4.502036,0,0,4.502036,-17.768476,-13.226316)">
        <path d="M36.59,66.785C36.051,66.785 35.613,66.347 35.613,65.808L35.613,64.41C35.613,63.871 36.051,63.433 36.59,63.433C37.129,63.433 37.567,63.871 37.567,64.41L37.567,65.805C37.567,66.344 37.129,66.781 36.59,66.781L36.59,66.785Z" style="fill:rgb(0,0,0);"/>
    </g>
    <g transform="matrix(4.502036,0,0,4.502036,-17.768476,-13.226316)">
        <path d="M41.094,66.785C40.555,66.785 40.117,66.347 40.117,65.808L40.117,64.41C40.117,63.871 40.555,63.433 41.094,63.433C41.633,63.433 42.071,63.871 42.071,64.41L42.071,65.805C42.071,66.344 41.633,66.781 41.094,66.781L41.094,66.785Z" style="fill:rgb(0,0,0);"/>
    </g>
    <g transform="matrix(4.502036,0,0,4.502036,-17.768476,-13.226316)">
        <path d="M45.594,66.785C45.055,66.785 44.617,66.347 44.617,65.808L44.617,64.41C44.617,63.871 45.055,63.433 45.594,63.433C46.133,63.433 46.571,63.871 46.571,64.41L46.571,65.805C46.571,66.344 46.133,66.781 45.594,66.781L45.594,66.785Z" style="fill:rgb(0,0,0);"/>
    </g>
    <g transform="matrix(4.502036,0,0,4.502036,-17.768476,-13.226316)">
        <path d="M38.84,61.855C38.301,61.855 37.863,61.417 37.863,60.878L37.863,59.48C37.863,58.941 38.301,58.503 38.84,58.503C39.379,58.503 39.817,58.941 39.817,59.48L39.817,60.875C39.817,61.414 39.379,61.851 38.84,61.851L38.84,61.855Z" style="fill:rgb(0,0,0);"/>
    </g>
    <g transform="matrix(4.502036,0,0,4.502036,-17.768476,-13.226316)">
        <path d="M43.344,61.855C42.805,61.855 42.367,61.417 42.367,60.878L42.367,59.48C42.367,58.941 42.805,58.503 43.344,58.503C43.883,58.503 44.321,58.941 44.321,59.48L44.321,60.875C44.321,61.414 43.883,61.851 43.344,61.851L43.344,61.855Z" style="fill:rgb(0,0,0);"/>
    </g>
    <g transform="matrix(4.502036,0,0,4.502036,-17.768476,-13.226316)">
        <path d="M47.254,32.477L69.594,32.477L69.594,28.192L47.254,28.192L47.254,32.477ZM70.57,34.43L46.277,34.43C45.738,34.43 45.3,33.993 45.3,33.454L45.3,27.215C45.3,26.676 45.738,26.239 46.277,26.239L70.57,26.239C71.109,26.239 71.547,26.676 71.547,27.215L71.547,33.454C71.547,33.993 71.109,34.43 70.57,34.43Z" style="fill:rgb(0,0,0);"/>
    </g>
    <g transform="matrix(4.502036,0,0,4.502036,-17.768476,-13.226316)">
        <path d="M68.25,46.91L48.594,46.91C48.055,46.91 47.617,46.472 47.617,45.933L47.617,33.453C47.617,32.914 48.055,32.477 48.594,32.477C49.133,32.477 49.571,32.914 49.571,33.453L49.571,44.953L67.274,44.953L67.274,33.453C67.274,32.914 67.711,32.477 68.25,32.477C68.789,32.477 69.227,32.914 69.227,33.453L69.227,45.93C69.227,46.47 68.789,46.907 68.25,46.907L68.25,46.91Z" style="fill:rgb(0,0,0);"/>
    </g>
    <g transform="matrix(4.502036,0,0,4.502036,-17.768476,-13.226316)">
        <path d="M58.422,46.91C57.883,46.91 57.445,46.472 57.445,45.933L57.445,33.453C57.445,32.914 57.883,32.477 58.422,32.477C58.961,32.477 59.399,32.914 59.399,33.453L59.399,45.93C59.399,46.47 58.961,46.907 58.422,46.907L58.422,46.91Z" style="fill:rgb(0,0,0);"/>
    </g>
    <g transform="matrix(4.502036,0,0,4.502036,-17.768476,-13.226316)">
        <path d="M54.121,41.598C53.582,41.598 53.144,41.16 53.144,40.621L53.144,38.762C53.144,38.223 53.582,37.785 54.121,37.785C54.66,37.785 55.098,38.223 55.098,38.762L55.098,40.621C55.098,41.16 54.66,41.598 54.121,41.598Z" style="fill:rgb(0,0,0);"/>
    </g>
    <g transform="matrix(4.502036,0,0,4.502036,-17.768476,-13.226316)">
        <path d="M62.727,41.598C62.188,41.598 61.75,41.16 61.75,40.621L61.75,38.762C61.75,38.223 62.188,37.785 62.727,37.785C63.266,37.785 63.704,38.223 63.704,38.762L63.704,40.621C63.704,41.16 63.266,41.598 62.727,41.598Z" style="fill:rgb(0,0,0);"/>
    </g>
    <g transform="matrix(4.502036,0,0,4.502036,-17.768476,-13.226316)">
        <path d="M58.449,63.777L69.699,63.777L67.515,55.629L60.633,55.629L58.449,63.777ZM70.972,65.73L57.175,65.73C56.87,65.73 56.585,65.589 56.402,65.347C56.218,65.105 56.155,64.793 56.234,64.5L58.941,54.398C59.054,53.972 59.441,53.675 59.886,53.675L68.265,53.675C68.706,53.675 69.093,53.972 69.21,54.402L71.917,64.504C71.995,64.796 71.933,65.109 71.749,65.351C71.566,65.593 71.28,65.734 70.976,65.734L70.972,65.73Z" style="fill:rgb(0,0,0);"/>
    </g>
    <g transform="matrix(4.502036,0,0,4.502036,-17.768476,-13.226316)">
        <path d="M64.07,80.285C63.531,80.285 63.093,79.847 63.093,79.308L63.093,64.749C63.093,64.21 63.531,63.773 64.07,63.773C64.613,63.773 65.047,64.21 65.047,64.749L65.047,79.308C65.047,79.847 64.613,80.285 64.07,80.285Z" style="fill:rgb(0,0,0);"/>
    </g>
    <g transform="matrix(4.502036,0,0,4.502036,-17.768476,-13.226316)">
        <path d="M68.039,84.164C67.602,84.164 67.203,83.871 67.094,83.426L66.301,80.289L61.84,80.289L61.051,83.426C60.918,83.949 60.387,84.266 59.863,84.133C59.34,84 59.023,83.469 59.156,82.949L60.133,79.07C60.242,78.637 60.633,78.332 61.078,78.332L67.059,78.332C67.508,78.332 67.898,78.637 68.008,79.07L68.984,82.945C69.117,83.469 68.801,84 68.277,84.133C68.195,84.152 68.117,84.164 68.039,84.164L68.039,84.164Z" style="fill:rgb(0,0,0);"/>
    </g>
    <g transform="matrix(4.502036,0,0,4.502036,-17.768476,-13.226316)">
        <path d="M38.742,32.891L23.23,32.891C22.691,32.891 22.253,32.453 22.253,31.914C22.253,31.375 22.691,30.938 23.23,30.938L37.765,30.938L37.765,25.567C37.765,25.028 38.203,24.59 38.742,24.59C39.281,24.59 39.718,25.028 39.718,25.567L39.718,31.914C39.718,32.454 39.281,32.891 38.742,32.891L38.742,32.891Z" style="fill:rgb(0,0,0);"/>
    </g>
    <g transform="matrix(4.502036,0,0,4.502036,-17.768476,-13.226316)">
        <path d="M36.543,40.461L29.828,40.461C29.285,40.461 28.852,40.023 28.852,39.484L28.852,31.914C28.852,31.375 29.285,30.938 29.828,30.938C30.367,30.938 30.805,31.375 30.805,31.914L30.805,38.508L36.543,38.508C37.082,38.508 37.52,38.945 37.52,39.484C37.52,40.024 37.082,40.461 36.543,40.461L36.543,40.461Z" style="fill:rgb(0,0,0);"/>
    </g>
    <g transform="matrix(4.502036,0,0,4.502036,-17.768476,-13.226316)">
        <path d="M38.375,48.77L23.227,48.77C22.688,48.77 22.25,48.333 22.25,47.793C22.25,47.254 22.688,46.817 23.227,46.817L38.375,46.817C38.914,46.817 39.352,47.254 39.352,47.793C39.352,48.333 38.914,48.77 38.375,48.77Z" style="fill:rgb(0,0,0);"/>
    </g>
    <g transform="matrix(4.502036,0,0,4.502036,-17.768476,-13.226316)">
        <path d="M38.375,52.199C37.836,52.199 37.398,51.761 37.398,51.222L37.398,44.367C37.398,43.828 37.836,43.39 38.375,43.39C38.914,43.39 39.352,43.828 39.352,44.367L39.352,51.222C39.352,51.761 38.914,52.199 38.375,52.199Z" style="fill:rgb(0,0,0);"/>
    </g>
</svg>
